{
  "accessors": [
    {
      "bufferView": 2,
      "componentType": 5126,
      "count": 1502,
      "max": [
        11.062498092651367,
        5.5624985694885254,
        5.0000004768371582
      ],
      "min": [
        -11.062498092651367,
        -5.5624985694885254,
        -0.85000002384185791
      ],
      "type": "VEC3"
    },
    {
      "bufferView": 2,
      "byteOffset": 18024,
      "componentType": 5126,
      "count": 1502,
      "max": [
        1,
        1,
        5.1480390084179817e-07
      ],
      "min": [
        -1,
        -1,
        -1
      ],
      "type": "VEC3"
    },
    {
      "bufferView": 3,
      "componentType": 5126,
      "count": 1502,
      "max": [
        1,
        1,
        3.2003713386075106e-06,
        1
      ],
      "min": [
        -1,
        -1,
        -9.6011217465274967e-06,
        -1
      ],
      "type": "VEC4"
    },
    {
      "bufferView": 1,
      "componentType": 5126,
      "count": 1502,
      "max": [
        16.499015808105469,
        4.4994783401489258
      ],
      "min": [
        -7.4991559982299805,
        -3.4994783401489258
      ],
      "type": "VEC2"
    },
    {
      "bufferView": 0,
      "componentType": 5125,
      "count": 2568,
      "max": [
        1501
      ],
      "min": [
        0
      ],
      "type": "SCALAR"
    },
    {
      "bufferView": 2,
      "byteOffset": 36048,
      "componentType": 5126,
      "count": 256,
      "max": [
        10.999998092651367,
        5,
        5
      ],
      "min": [
        -11,
        -5,
        4.3897948265075684
      ],
      "type": "VEC3"
    },
    {
      "bufferView": 2,
      "byteOffset": 39120,
      "componentType": 5126,
      "count": 256,
      "max": [
        0.97496676445007324,
        0.99433743953704834,
        -0.10626901686191559
      ],
      "min": [
        -0.97496676445007324,
        -0.99433743953704834,
        -1
      ],
      "type": "VEC3"
    },
    {
      "bufferView": 3,
      "byteOffset": 24032,
      "componentType": 5126,
      "count": 256,
      "max": [
        1,
        1,
        0.99433743953704834,
        1
      ],
      "min": [
        -7.9012597780092619e-06,
        -3.8187590689631179e-06,
        -0.99433749914169312,
        1
      ],
      "type": "VEC4"
    },
    {
      "bufferView": 1,
      "byteOffset": 12016,
      "componentType": 5126,
      "count": 256,
      "max": [
        0.74835866689682007,
        4.6692242622375488
      ],
      "min": [
        0.17553707957267761,
        -4.5975174903869629
      ],
      "type": "VEC2"
    },
    {
      "bufferView": 0,
      "byteOffset": 10272,
      "componentType": 5125,
      "count": 384,
      "max": [
        255
      ],
      "min": [
        0
      ],
      "type": "SCALAR"
    },
    {
      "bufferView": 2,
      "byteOffset": 42192,
      "componentType": 5126,
      "count": 3110,
      "max": [
        10.5,
        5.3000001907348633,
        2.6600000858306885
      ],
      "min": [
        -10.5,
        -5.3000001907348633,
        -1.5
      ],
      "type": "VEC3"
    },
    {
      "bufferView": 2,
      "byteOffset": 79512,
      "componentType": 5126,
      "count": 3110,
      "max": [
        1,
        1,
        1
      ],
      "min": [
        -1,
        -1,
        -1
      ],
      "type": "VEC3"
    },
    {
      "bufferView": 3,
      "byteOffset": 28128,
      "componentType": 5126,
      "count": 3110,
      "max": [
        0.99948298931121826,
        1,
        0.9980168342590332,
        1
      ],
      "min": [
        -0.99107170104980469,
        -1,
        -0.97946727275848389,
        -1
      ],
      "type": "VEC4"
    },
    {
      "bufferView": 1,
      "byteOffset": 14064,
      "componentType": 5126,
      "count": 3110,
      "max": [
        15.466821670532227,
        10.663915634155273
      ],
      "min": [
        -15.497529983520508,
        -1.1521878242492676
      ],
      "type": "VEC2"
    },
    {
      "bufferView": 0,
      "byteOffset": 11808,
      "componentType": 5125,
      "count": 4716,
      "max": [
        3109
      ],
      "min": [
        0
      ],
      "type": "SCALAR"
    },
    {
      "bufferView": 2,
      "byteOffset": 116832,
      "componentType": 5126,
      "count": 1714,
      "max": [
        11.062498092651367,
        5.5624985694885254,
        4.6145925521850586
      ],
      "min": [
        -11.062498092651367,
        -5.5624985694885254,
        1.8174991607666016
      ],
      "type": "VEC3"
    },
    {
      "bufferView": 2,
      "byteOffset": 137400,
      "componentType": 5126,
      "count": 1714,
      "max": [
        1,
        1,
        5.725983101001475e-07
      ],
      "min": [
        -1,
        -1,
        -1
      ],
      "type": "VEC3"
    },
    {
      "bufferView": 3,
      "byteOffset": 77888,
      "componentType": 5126,
      "count": 1714,
      "max": [
        1,
        1,
        1,
        1
      ],
      "min": [
        -1,
        -1,
        -1,
        -1
      ],
      "type": "VEC4"
    },
    {
      "bufferView": 1,
      "byteOffset": 38944,
      "componentType": 5126,
      "count": 1714,
      "max": [
        0.5,
        3.7500002384185791
      ],
      "min": [
        -1.5655533047720382e-07,
        -1.1920928955078125e-07
      ],
      "type": "VEC2"
    },
    {
      "bufferView": 0,
      "byteOffset": 30672,
      "componentType": 5125,
      "count": 2700,
      "max": [
        1713
      ],
      "min": [
        0
      ],
      "type": "SCALAR"
    },
    {
      "bufferView": 2,
      "byteOffset": 157968,
      "componentType": 5126,
      "count": 856,
      "max": [
        10.46124267578125,
        5.3000001907348633,
        3.4499998092651367
      ],
      "min": [
        -10.46124267578125,
        -5.3000001907348633,
        -1.5
      ],
      "type": "VEC3"
    },
    {
      "bufferView": 2,
      "byteOffset": 168240,
      "componentType": 5126,
      "count": 856,
      "max": [
        1,
        1,
        1
      ],
      "min": [
        -1,
        -1,
        -1
      ],
      "type": "VEC3"
    },
    {
      "bufferView": 3,
      "byteOffset": 105312,
      "componentType": 5126,
      "count": 856,
      "max": [
        1,
        1,
        0.38031202554702759,
        1
      ],
      "min": [
        -0.88984060287475586,
        -1,
        -0.38276085257530212,
        -1
      ],
      "type": "VEC4"
    },
    {
      "bufferView": 1,
      "byteOffset": 52656,
      "componentType": 5126,
      "count": 856,
      "max": [
        15.421749114990234,
        2.1521856784820557
      ],
      "min": [
        -7.4987354278564453,
        -4.6759958267211914
      ],
      "type": "VEC2"
    },
    {
      "bufferView": 0,
      "byteOffset": 41472,
      "componentType": 5125,
      "count": 1320,
      "max": [
        855
      ],
      "min": [
        0
      ],
      "type": "SCALAR"
    },
    {
      "bufferView": 2,
      "byteOffset": 178512,
      "componentType": 5126,
      "count": 4,
      "max": [
        10.46124267578125,
        4.4183435440063477,
        -1
      ],
      "min": [
        -10.46124267578125,
        -4.4183435440063477,
        -1
      ],
      "type": "VEC3"
    },
    {
      "bufferView": 2,
      "byteOffset": 178560,
      "componentType": 5126,
      "count": 4,
      "max": [
        0,
        0,
        1
      ],
      "min": [
        0,
        0,
        1
      ],
      "type": "VEC3"
    },
    {
      "bufferView": 3,
      "byteOffset": 119008,
      "componentType": 5126,
      "count": 4,
      "max": [
        1,
        2.086434705006468e-07,
        0,
        1
      ],
      "min": [
        1,
        0,
        0,
        1
      ],
      "type": "VEC4"
    },
    {
      "bufferView": 1,
      "byteOffset": 59504,
      "componentType": 5126,
      "count": 4,
      "max": [
        8.4989604949951172,
        3.589604377746582
      ],
      "min": [
        -7.4989604949951172,
        -3.1671757698059082
      ],
      "type": "VEC2"
    },
    {
      "bufferView": 0,
      "byteOffset": 46752,
      "componentType": 5125,
      "count": 6,
      "max": [
        3
      ],
      "min": [
        0
      ],
      "type": "SCALAR"
    },
    {
      "bufferView": 2,
      "byteOffset": 178608,
      "componentType": 5126,
      "count": 32,
      "max": [
        9.4166669845581055,
        5.2537837028503418,
        3.4499998092651367
      ],
      "min": [
        -9.4166669845581055,
        -5.2537837028503418,
        -0.18978190422058105
      ],
      "type": "VEC3"
    },
    {
      "bufferView": 2,
      "byteOffset": 178992,
      "componentType": 5126,
      "count": 32,
      "max": [
        0,
        1,
        0
      ],
      "min": [
        0,
        -1,
        0
      ],
      "type": "VEC3"
    },
    {
      "bufferView": 3,
      "byteOffset": 119072,
      "componentType": 5126,
      "count": 32,
      "max": [
        1,
        0,
        0.00012051435624016449,
        1
      ],
      "min": [
        -1,
        0,
        -0.00012051439261995256,
        1
      ],
      "type": "VEC4"
    },
    {
      "bufferView": 1,
      "byteOffset": 59536,
      "componentType": 5126,
      "count": 32,
      "max": [
        0.80843335390090942,
        0.79022300243377686
      ],
      "min": [
        0.27334907650947571,
        0.43321287631988525
      ],
      "type": "VEC2"
    },
    {
      "bufferView": 0,
      "byteOffset": 46776,
      "componentType": 5125,
      "count": 48,
      "max": [
        31
      ],
      "min": [
        0
      ],
      "type": "SCALAR"
    }
  ],
  "asset": {
    "extras": {
      "author": "Yo.Ri (https://sketchfab.com/grox777)",
      "license": "CC-BY-4.0 (http://creativecommons.org/licenses/by/4.0/)",
      "source": "https://sketchfab.com/models/c0c76fac78774481b8322c775a58c711",
      "title": "VR Gallery vintage For Product Showcase 2019"
    },
    "generator": "Sketchfab-3.47.8",
    "version": "2.0"
  },
  "bufferViews": [
    {
      "buffer": 0,
      "byteLength": 46968,
      "byteOffset": 0,
      "name": "floatBufferViews",
      "target": 34963
    },
    {
      "buffer": 0,
      "byteLength": 59792,
      "byteOffset": 46968,
      "byteStride": 8,
      "name": "floatBufferViews",
      "target": 34962
    },
    {
      "buffer": 0,
      "byteLength": 179376,
      "byteOffset": 106760,
      "byteStride": 12,
      "name": "floatBufferViews",
      "target": 34962
    },
    {
      "buffer": 0,
      "byteLength": 119584,
      "byteOffset": 286136,
      "byteStride": 16,
      "name": "floatBufferViews",
      "target": 34962
    }
  ],
  "buffers": [
    {
      "byteLength": 405720,
      "uri": "scene.bin"
    }
  ],
  "images": [
    {
      "uri": "textures/Walls_baseColor.jpeg"
    },
    {
      "uri": "textures/Bricks_baseColor.jpeg"
    },
    {
      "uri": "textures/Floor_baseColor.jpeg"
    },
    {
      "uri": "textures/wood_baseColor.jpeg"
    }
  ],
  "materials": [
    {
      "doubleSided": true,
      "emissiveFactor": [
        0,
        0,
        0
      ],
      "name": "Walls",
      "pbrMetallicRoughness": {
        "baseColorFactor": [
          1,
          1,
          1,
          1
        ],
        "baseColorTexture": {
          "index": 0,
          "texCoord": 0
        },
        "metallicFactor": 0,
        "roughnessFactor": 0.95770514949999996
      }
    },
    {
      "doubleSided": true,
      "emissiveFactor": [
        0,
        0,
        0
      ],
      "name": "wood",
      "pbrMetallicRoughness": {
        "baseColorFactor": [
          1,
          1,
          1,
          1
        ],
        "baseColorTexture": {
          "index": 3,
          "texCoord": 0
        },
        "metallicFactor": 0,
        "roughnessFactor": 1
      }
    },
    {
      "doubleSided": true,
      "emissiveFactor": [
        0,
        0,
        0
      ],
      "name": "Gray",
      "pbrMetallicRoughness": {
        "baseColorFactor": [
          0.31853799999999999,
          0.31853799999999999,
          0.31853799999999999,
          1
        ],
        "metallicFactor": 0,
        "roughnessFactor": 0.82394172570000002
      }
    },
    {
      "doubleSided": true,
      "emissiveFactor": [
        0,
        0,
        0
      ],
      "name": "Bricks",
      "pbrMetallicRoughness": {
        "baseColorFactor": [
          1,
          1,
          1,
          1
        ],
        "baseColorTexture": {
          "index": 1,
          "texCoord": 0
        },
        "metallicFactor": 0,
        "roughnessFactor": 0.95770514949999996
      }
    },
    {
      "doubleSided": true,
      "emissiveFactor": [
        0,
        0,
        0
      ],
      "name": "black",
      "pbrMetallicRoughness": {
        "baseColorFactor": [
          0.076579700000000001,
          0.076579700000000001,
          0.076579700000000001,
          1
        ],
        "metallicFactor": 0,
        "roughnessFactor": 0.82394172570000002
      }
    },
    {
      "doubleSided": true,
      "emissiveFactor": [
        0,
        0,
        0
      ],
      "name": "Floor",
      "pbrMetallicRoughness": {
        "baseColorFactor": [
          1,
          1,
          1,
          1
        ],
        "baseColorTexture": {
          "index": 2,
          "texCoord": 0
        },
        "metallicFactor": 0,
        "roughnessFactor": 0.95770514949999996
      }
    },
    {
      "alphaMode": "BLEND",
      "doubleSided": true,
      "emissiveFactor": [
        0,
        0,
        0
      ],
      "name": "Glass",
      "pbrMetallicRoughness": {
        "baseColorFactor": [
          0.80000000000000004,
          0.80000000000000004,
          0.80000000000000004,
          0.60179924240000005
        ],
        "metallicFactor": 1,
        "roughnessFactor": 0
      }
    }
  ],
  "meshes": [
    {
      "name": "ShowCase_Gallery_Walls_0",
      "primitives": [
        {
          "attributes": {
            "NORMAL": 1,
            "POSITION": 0,
            "TANGENT": 2,
            "TEXCOORD_0": 3
          },
          "indices": 4,
          "material": 0,
          "mode": 4
        }
      ]
    },
    {
      "name": "ShowCase_Gallery_wood_0",
      "primitives": [
        {
          "attributes": {
            "NORMAL": 6,
            "POSITION": 5,
            "TANGENT": 7,
            "TEXCOORD_0": 8
          },
          "indices": 9,
          "material": 1,
          "mode": 4
        }
      ]
    },
    {
      "name": "ShowCase_Gallery_Gray_0",
      "primitives": [
        {
          "attributes": {
            "NORMAL": 11,
            "POSITION": 10,
            "TANGENT": 12,
            "TEXCOORD_0": 13
          },
          "indices": 14,
          "material": 2,
          "mode": 4
        }
      ]
    },
    {
      "name": "ShowCase_Gallery_Bricks_0",
      "primitives": [
        {
          "attributes": {
            "NORMAL": 16,
            "POSITION": 15,
            "TANGENT": 17,
            "TEXCOORD_0": 18
          },
          "indices": 19,
          "material": 3,
          "mode": 4
        }
      ]
    },
    {
      "name": "ShowCase_Gallery_black_0",
      "primitives": [
        {
          "attributes": {
            "NORMAL": 21,
            "POSITION": 20,
            "TANGENT": 22,
            "TEXCOORD_0": 23
          },
          "indices": 24,
          "material": 4,
          "mode": 4
        }
      ]
    },
    {
      "name": "ShowCase_Gallery_Floor_0",
      "primitives": [
        {
          "attributes": {
            "NORMAL": 26,
            "POSITION": 25,
            "TANGENT": 27,
            "TEXCOORD_0": 28
          },
          "indices": 29,
          "material": 5,
          "mode": 4
        }
      ]
    },
    {
      "name": "ShowCase_Gallery_Glass_0",
      "primitives": [
        {
          "attributes": {
            "NORMAL": 31,
            "POSITION": 30,
            "TANGENT": 32,
            "TEXCOORD_0": 33
          },
          "indices": 34,
          "material": 6,
          "mode": 4
        }
      ]
    }
  ],
  "nodes": [
    {
      "children": [
        1
      ],
      "name": "RootNode (gltf orientation matrix)",
      "rotation": [
        -0.70710678118654746,
        -0,
        -0,
        0.70710678118654757
      ]
    },
    {
      "children": [
        2
      ],
      "name": "RootNode (model correction matrix)"
    },
    {
      "children": [
        3
      ],
      "matrix": [
        1,
        0,
        0,
        0,
        0,
        0,
        1,
        0,
        0,
        -1,
        0,
        0,
        0,
        0,
        0,
        1
      ],
      "name": "37449e9ca0a34a91964cb5aaeaff0b4f.fbx"
    },
    {
      "children": [
        4
      ],
      "name": "RootNode"
    },
    {
      "children": [
        5,
        6,
        7,
        8,
        9,
        10,
        11
      ],
      "matrix": [
        50,
        0,
        0,
        0,
        0,
        -8.1460339695915707e-06,
        -49.999999999999339,
        0,
        0,
        49.999999999999339,
        -8.1460339695915707e-06,
        0,
        0,
        50,
        0,
        1
      ],
      "name": "ShowCase_Gallery"
    },
    {
      "mesh": 0,
      "name": "ShowCase_Gallery_Walls_0"
    },
    {
      "mesh": 1,
      "name": "ShowCase_Gallery_wood_0"
    },
    {
      "mesh": 2,
      "name": "ShowCase_Gallery_Gray_0"
    },
    {
      "mesh": 3,
      "name": "ShowCase_Gallery_Bricks_0"
    },
    {
      "mesh": 4,
      "name": "ShowCase_Gallery_black_0"
    },
    {
      "mesh": 5,
      "name": "ShowCase_Gallery_Floor_0"
    },
    {
      "mesh": 6,
      "name": "ShowCase_Gallery_Glass_0"
    }
  ],
  "samplers": [
    {
      "magFilter": 9729,
      "minFilter": 9987,
      "wrapS": 10497,
      "wrapT": 10497
    }
  ],
  "scene": 0,
  "scenes": [
    {
      "name": "OSG_Scene",
      "nodes": [
        0
      ]
    }
  ],
  "textures": [
    {
      "sampler": 0,
      "source": 0
    },
    {
      "sampler": 0,
      "source": 1
    },
    {
      "sampler": 0,
      "source": 2
    },
    {
      "sampler": 0,
      "source": 3
    }
  ]
}

